<?xml version="1.0" encoding="UTF-8" standalone="no"?>
<!DOCTYPE svg PUBLIC "-//W3C//DTD SVG 1.1//EN"
 "http://www.w3.org/Graphics/SVG/1.1/DTD/svg11.dtd">
<!-- Generated by graphviz version 2.40.1 (20161225.0304)
 -->
<!-- Title: G Pages: 1 -->
<svg width="151pt" height="292pt"
 viewBox="0.00 0.00 151.21 292.00" xmlns="http://www.w3.org/2000/svg" xmlns:xlink="http://www.w3.org/1999/xlink">
<g id="graph0" class="graph" transform="scale(1 1) rotate(0) translate(4 288)">
<title>G</title>
<polygon fill="#ffffff" stroke="transparent" points="-4,4 -4,-288 147.2129,-288 147.2129,4 -4,4"/>
<g id="clust1" class="cluster">
<title>cluster_Global</title>
<path fill="none" stroke="#c0c0c0" d="M20,-8C20,-8 123.2129,-8 123.2129,-8 129.2129,-8 135.2129,-14 135.2129,-20 135.2129,-20 135.2129,-264 135.2129,-264 135.2129,-270 129.2129,-276 123.2129,-276 123.2129,-276 20,-276 20,-276 14,-276 8,-270 8,-264 8,-264 8,-20 8,-20 8,-14 14,-8 20,-8"/>
<text text-anchor="middle" x="71.6064" y="-263.2" font-family="Times,serif" font-size="11.00" fill="#c0c0c0">Global</text>
</g>
<g id="clust2" class="cluster">
<title>cluster_\cpaassdk</title>
<path fill="none" stroke="#c0c0c0" d="M28,-16C28,-16 115.2129,-16 115.2129,-16 121.2129,-16 127.2129,-22 127.2129,-28 127.2129,-28 127.2129,-237 127.2129,-237 127.2129,-243 121.2129,-249 115.2129,-249 115.2129,-249 28,-249 28,-249 22,-249 16,-243 16,-237 16,-237 16,-28 16,-28 16,-22 22,-16 28,-16"/>
<text text-anchor="middle" x="71.6064" y="-236.2" font-family="Times,serif" font-size="11.00" fill="#c0c0c0">cpaassdk</text>
</g>
<!-- \\cpaassdk\\Conversation -->
<g id="node1" class="node">
<title>\\cpaassdk\\Conversation</title>
<polygon fill="none" stroke="#000000" points="119.3196,-222 23.8933,-222 23.8933,-186 119.3196,-186 119.3196,-222"/>
<text text-anchor="middle" x="71.6064" y="-200.7" font-family="Courier,monospace" font-size="11.00" fill="#000000">Conversation</text>
</g>
<!-- \\cpaassdk\\Twofactor -->
<g id="node2" class="node">
<title>\\cpaassdk\\Twofactor</title>
<polygon fill="none" stroke="#000000" points="109.5172,-168 33.6957,-168 33.6957,-132 109.5172,-132 109.5172,-168"/>
<text text-anchor="middle" x="71.6064" y="-146.7" font-family="Courier,monospace" font-size="11.00" fill="#000000">Twofactor</text>
</g>
<!-- \\cpaassdk\\Client -->
<g id="node3" class="node">
<title>\\cpaassdk\\Client</title>
<polygon fill="none" stroke="#000000" points="99.2143,-114 43.9986,-114 43.9986,-78 99.2143,-78 99.2143,-114"/>
<text text-anchor="middle" x="71.6064" y="-92.7" font-family="Courier,monospace" font-size="11.00" fill="#000000">Client</text>
</g>
<!-- \\cpaassdk\\Notification -->
<g id="node4" class="node">
<title>\\cpaassdk\\Notification</title>
<polygon fill="none" stroke="#000000" points="119.3196,-60 23.8933,-60 23.8933,-24 119.3196,-24 119.3196,-60"/>
<text text-anchor="middle" x="71.6064" y="-38.7" font-family="Courier,monospace" font-size="11.00" fill="#000000">Notification</text>
</g>
</g>
</svg>
