<?xml version="1.0" encoding="UTF-8" standalone="no"?>
<!DOCTYPE svg PUBLIC "-//W3C//DTD SVG 1.1//EN"
 "http://www.w3.org/Graphics/SVG/1.1/DTD/svg11.dtd">
<!-- Generated by graphviz version 2.40.1 (20161225.0304)
 -->
<!-- Title: G Pages: 1 -->
<svg width="167pt" height="319pt"
 viewBox="0.00 0.00 167.21 319.00" xmlns="http://www.w3.org/2000/svg" xmlns:xlink="http://www.w3.org/1999/xlink">
<g id="graph0" class="graph" transform="scale(1 1) rotate(0) translate(4 315)">
<title>G</title>
<polygon fill="#ffffff" stroke="transparent" points="-4,4 -4,-315 163.2129,-315 163.2129,4 -4,4"/>
<g id="clust1" class="cluster">
<title>cluster_Global</title>
<path fill="none" stroke="#c0c0c0" d="M20,-8C20,-8 139.2129,-8 139.2129,-8 145.2129,-8 151.2129,-14 151.2129,-20 151.2129,-20 151.2129,-291 151.2129,-291 151.2129,-297 145.2129,-303 139.2129,-303 139.2129,-303 20,-303 20,-303 14,-303 8,-297 8,-291 8,-291 8,-20 8,-20 8,-14 14,-8 20,-8"/>
<text text-anchor="middle" x="79.6064" y="-290.2" font-family="Times,serif" font-size="11.00" fill="#c0c0c0">Global</text>
</g>
<g id="clust2" class="cluster">
<title>cluster_\CpaasSdk</title>
<path fill="none" stroke="#c0c0c0" d="M28,-16C28,-16 131.2129,-16 131.2129,-16 137.2129,-16 143.2129,-22 143.2129,-28 143.2129,-28 143.2129,-264 143.2129,-264 143.2129,-270 137.2129,-276 131.2129,-276 131.2129,-276 28,-276 28,-276 22,-276 16,-270 16,-264 16,-264 16,-28 16,-28 16,-22 22,-16 28,-16"/>
<text text-anchor="middle" x="79.6064" y="-263.2" font-family="Times,serif" font-size="11.00" fill="#c0c0c0">CpaasSdk</text>
</g>
<g id="clust3" class="cluster">
<title>cluster_\CpaasSdk\Resources</title>
<path fill="none" stroke="#c0c0c0" d="M36,-70C36,-70 123.2129,-70 123.2129,-70 129.2129,-70 135.2129,-76 135.2129,-82 135.2129,-82 135.2129,-237 135.2129,-237 135.2129,-243 129.2129,-249 123.2129,-249 123.2129,-249 36,-249 36,-249 30,-249 24,-243 24,-237 24,-237 24,-82 24,-82 24,-76 30,-70 36,-70"/>
<text text-anchor="middle" x="79.6064" y="-236.2" font-family="Times,serif" font-size="11.00" fill="#c0c0c0">Resources</text>
</g>
<!-- \\CpaasSdk\\Resources\\Conversation -->
<g id="node1" class="node">
<title>\\CpaasSdk\\Resources\\Conversation</title>
<polygon fill="none" stroke="#000000" points="127.3196,-222 31.8933,-222 31.8933,-186 127.3196,-186 127.3196,-222"/>
<text text-anchor="middle" x="79.6064" y="-200.7" font-family="Courier,monospace" font-size="11.00" fill="#000000">Conversation</text>
</g>
<!-- \\CpaasSdk\\Resources\\Twofactor -->
<g id="node2" class="node">
<title>\\CpaasSdk\\Resources\\Twofactor</title>
<polygon fill="none" stroke="#000000" points="117.5172,-168 41.6957,-168 41.6957,-132 117.5172,-132 117.5172,-168"/>
<text text-anchor="middle" x="79.6064" y="-146.7" font-family="Courier,monospace" font-size="11.00" fill="#000000">Twofactor</text>
</g>
<!-- \\CpaasSdk\\Resources\\Notification -->
<g id="node3" class="node">
<title>\\CpaasSdk\\Resources\\Notification</title>
<polygon fill="none" stroke="#000000" points="127.3196,-114 31.8933,-114 31.8933,-78 127.3196,-78 127.3196,-114"/>
<text text-anchor="middle" x="79.6064" y="-92.7" font-family="Courier,monospace" font-size="11.00" fill="#000000">Notification</text>
</g>
<!-- \\CpaasSdk\\Client -->
<g id="node4" class="node">
<title>\\CpaasSdk\\Client</title>
<polygon fill="none" stroke="#000000" points="107.2143,-60 51.9986,-60 51.9986,-24 107.2143,-24 107.2143,-60"/>
<text text-anchor="middle" x="79.6064" y="-38.7" font-family="Courier,monospace" font-size="11.00" fill="#000000">Client</text>
</g>
</g>
</svg>
