<?xml version="1.0" encoding="UTF-8" standalone="no"?>
<!DOCTYPE svg PUBLIC "-//W3C//DTD SVG 1.1//EN"
 "http://www.w3.org/Graphics/SVG/1.1/DTD/svg11.dtd">
<!-- Generated by graphviz version 2.43.0 (0)
 -->
<!-- Title: G Pages: 1 -->
<svg width="151pt" height="292pt"
 viewBox="0.00 0.00 151.21 292.00" xmlns="http://www.w3.org/2000/svg" xmlns:xlink="http://www.w3.org/1999/xlink">
<g id="graph0" class="graph" transform="scale(1 1) rotate(0) translate(4 288)">
<title>G</title>
<polygon fill="white" stroke="transparent" points="-4,4 -4,-288 147.21,-288 147.21,4 -4,4"/>
<g id="clust1" class="cluster">
<title>cluster_Global</title>
<path fill="none" stroke="gray" d="M20,-8C20,-8 123.21,-8 123.21,-8 129.21,-8 135.21,-14 135.21,-20 135.21,-20 135.21,-264 135.21,-264 135.21,-270 129.21,-276 123.21,-276 123.21,-276 20,-276 20,-276 14,-276 8,-270 8,-264 8,-264 8,-20 8,-20 8,-14 14,-8 20,-8"/>
<text text-anchor="middle" x="71.61" y="-263.2" font-family="Times,serif" font-size="11.00" fill="gray">Global</text>
</g>
<g id="clust2" class="cluster">
<title>cluster_\cpaassdk</title>
<path fill="none" stroke="gray" d="M28,-16C28,-16 115.21,-16 115.21,-16 121.21,-16 127.21,-22 127.21,-28 127.21,-28 127.21,-237 127.21,-237 127.21,-243 121.21,-249 115.21,-249 115.21,-249 28,-249 28,-249 22,-249 16,-243 16,-237 16,-237 16,-28 16,-28 16,-22 22,-16 28,-16"/>
<text text-anchor="middle" x="71.61" y="-236.2" font-family="Times,serif" font-size="11.00" fill="gray">cpaassdk</text>
</g>
<!-- \\cpaassdk\\Conversation -->
<g id="node1" class="node">
<title>\\cpaassdk\\Conversation</title>
<polygon fill="none" stroke="black" points="119.32,-222 23.89,-222 23.89,-186 119.32,-186 119.32,-222"/>
<text text-anchor="middle" x="71.61" y="-200.7" font-family="Courier,monospace" font-size="11.00">Conversation</text>
</g>
<!-- \\cpaassdk\\Twofactor -->
<g id="node2" class="node">
<title>\\cpaassdk\\Twofactor</title>
<polygon fill="none" stroke="black" points="109.52,-168 33.7,-168 33.7,-132 109.52,-132 109.52,-168"/>
<text text-anchor="middle" x="71.61" y="-146.7" font-family="Courier,monospace" font-size="11.00">Twofactor</text>
</g>
<!-- \\cpaassdk\\Client -->
<g id="node3" class="node">
<title>\\cpaassdk\\Client</title>
<polygon fill="none" stroke="black" points="99.21,-114 44,-114 44,-78 99.21,-78 99.21,-114"/>
<text text-anchor="middle" x="71.61" y="-92.7" font-family="Courier,monospace" font-size="11.00">Client</text>
</g>
<!-- \\cpaassdk\\Notification -->
<g id="node4" class="node">
<title>\\cpaassdk\\Notification</title>
<polygon fill="none" stroke="black" points="119.32,-60 23.89,-60 23.89,-24 119.32,-24 119.32,-60"/>
<text text-anchor="middle" x="71.61" y="-38.7" font-family="Courier,monospace" font-size="11.00">Notification</text>
</g>
</g>
</svg>
